# xmcd CD database file
#
# Track frame offsets:
#	150
#	12700
#	24395
#	38862
#	56257
#	64590
#	78242
#	94287
#	102785
#	117875
#	130327
#	141730
#
# Disc length: 2049 seconds
#
# Revision: 4
# Processed by: cddbd v1.4PL0 Copyright (c) Steve Scherf et al.
# Submitted via: CDex 1.50Beta3
#
DISCID=a107ff0c
DTITLE=Anne Phillips - BORN TO BE BLUE
DYEAR=1900
DGENRE=Jazz
TTITLE0=LONELYVILLE
TTITLE1=I'VE GOT TO PASS YOUR HOUSE TO GET MINE
TTITLE2=A STRANGER IN TOWN
TTITLE3=I DON'T WANT TO WALK WIGHOU YOU
TTITLE4=THERE WILL NEVER BE ANOTHER YOU
TTITLE5=WHEN SUNNY GETS BLUE
TTITLE6=BORN TO BE BLUE
TTITLE7=SATURDAY NIGHT IS THE LONELIEST NIGHT IN THE WEEK
TTITLE8=EASY  STREET
TTITLE9=FOR HEAVEN'S SAKE
TTITLE10=IT COULD HAPPEN TO YOU
TTITLE11=YOU DON'T KNOW WHAT LOVE IS
EXTD=
EXTT0=
EXTT1=
EXTT2=
EXTT3=
EXTT4=
EXTT5=
EXTT6=
EXTT7=
EXTT8=
EXTT9=
EXTT10=
EXTT11=
PLAYORDER=
